<svg xmlns="http://www.w3.org/2000/svg" viewBox="0 0 129.4 34.57"><defs><style>.cls-1{fill:#fff;stroke:#fff;stroke-miterlimit:10;stroke-width:0.5px;}.cls-2{fill:#227548;}.cls-3{fill:#72c487;}</style></defs><title>Asset 5</title><g id="Layer_2" data-name="Layer 2"><g id="Layer_1-2" data-name="Layer 1"><path class="cls-1" d="M2.43,27.61c.07.47.12.89.14,1.25s.06.71.12,1.23a4.27,4.27,0,0,0,.11.49c.06.26.1.46.12.62a2.53,2.53,0,0,1-.82-.88c-.26-.47-.46-.86-.6-1.16C1.12,28.34,1,28,1,28A7.63,7.63,0,0,1,.6,26.4c-.06-.4-.12-1.06-.19-2s-.12-1.56-.14-2,0-1,0-1.85V19.31c0-.56,0-1,0-1.4,0-1.05.07-1.64.07-1.8s0-.52,0-.93,0-.73,0-.93c0-.77,0-1.37.06-1.79a13.6,13.6,0,0,1,.21-1.67,14.2,14.2,0,0,1,.72-2.5c.52-1.38.89-2.29,1.1-2.72,0,.47,0,1.44,0,2.92a13.59,13.59,0,0,1-.18,2.56q-.15.84-.21,1.53,0,.54,0,1.71c0,.21,0,.52,0,.93s0,.74,0,1S2,16.91,1.9,18c0,.34,0,.79,0,1.35v1.23c0,.84,0,1.43,0,1.8S2,23.4,2,24.29s.13,1.52.19,1.88c0,.2.06.46.1.77S2.42,27.48,2.43,27.61Zm13.66-9.53a6.21,6.21,0,0,1,.72,2.1,6.7,6.7,0,0,1-.21,2.76,7.82,7.82,0,0,1-1.22,2.6,8.72,8.72,0,0,1-2.07,2,12.19,12.19,0,0,1-2.6,1.31,5.86,5.86,0,0,1-2.51.37,5.29,5.29,0,0,1-2.45-.86,5,5,0,0,1-1.62-1.67,4.85,4.85,0,0,1-.75-2.37c1,.89,1.52,1.41,1.7,1.56q.72.57,1.5,1.08a3.51,3.51,0,0,0,1.77.65,4.79,4.79,0,0,0,1.87-.3,10.47,10.47,0,0,0,2.18-1.13,6.64,6.64,0,0,0,1.67-1.63,6.24,6.24,0,0,0,1-2.08,5.25,5.25,0,0,0,.18-2.09A4.91,4.91,0,0,0,14.75,19a2.46,2.46,0,0,0-1.56-1A9.78,9.78,0,0,0,7.9,18a29.35,29.35,0,0,0-3.06.95,1.91,1.91,0,0,1-.74.18c-.19-.05-.3-.27-.33-.65a.7.7,0,0,0,0-.16q-.31-.5.12-.72a2.5,2.5,0,0,1,.39-.36c.15-.11.38-.27.7-.47l.65-.42C6,16,6.52,15.64,7,15.22c.24-.21.6-.51,1.07-.88l.67-.56.63-.58.68-.62a9.29,9.29,0,0,0,1.67-1.9,8.51,8.51,0,0,0,.86-1.91,6.59,6.59,0,0,0,.32-1.5,4.71,4.71,0,0,0,0-1,2.48,2.48,0,0,0-.28-.64,1.59,1.59,0,0,0-.48-.49,1.92,1.92,0,0,0-.72-.32,1.89,1.89,0,0,0-.65-.07,1.82,1.82,0,0,0-.49.34,4.34,4.34,0,0,0-.6.65c-.49.61-.87,1.09-1.12,1.44a13.19,13.19,0,0,0-.9,1.37c0,.07-.17.33-.4.77s-.5.88-.71,1.27c-.43.83-.71,1.39-.84,1.67A16.15,16.15,0,0,1,4.63,14Q3.3,16,3,16.48c0-.29.25-1.26.58-2.9a11.61,11.61,0,0,1,.6-2c.14-.3.44-.88.88-1.74.22-.41.46-.84.7-1.3l.44-.79a13,13,0,0,1,1-1.53c.28-.37.67-.88,1.18-1.51a6.13,6.13,0,0,1,.77-.82,2.76,2.76,0,0,1,1.25-.69,3.22,3.22,0,0,1,1.4.07,3.6,3.6,0,0,1,1.23.56,3.06,3.06,0,0,1,.9.93,3.47,3.47,0,0,1,.49,1.11,4.56,4.56,0,0,1,.11,1.51,8,8,0,0,1-.39,1.95,9.9,9.9,0,0,1-1,2.25,10,10,0,0,1-1.88,2.18L9.83,15s-.5.42-1.46,1.2a12,12,0,0,1,5.4.28A4,4,0,0,1,16.09,18.08Z"/><path class="cls-1" d="M31.38,23.29c.7,2.22,1.18,3.66,1.42,4.32a19,19,0,0,0,1.66,3.48c.18.33.42.72.72,1.16l.65,1a12.07,12.07,0,0,1-2.29-1.46,8.34,8.34,0,0,1-2.26-3.64c-.27-.71-.76-2.18-1.46-4.41-.46-1.46-.86-2.93-1.22-4.39-.86.1-1.81.17-2.84.21-.12.68-.26,1.4-.43,2.18a23.89,23.89,0,0,1-.66,2.6,8,8,0,0,1-.53,1.25A8.48,8.48,0,0,1,23,27.1c-.83.92-1.58,1.23-2.25.95a2.11,2.11,0,0,1-.93-.76,4.09,4.09,0,0,1-.48-.86,15,15,0,0,1-.53-1.6,12.21,12.21,0,0,1-.4-2,11,11,0,0,1-.05-1.76A15.9,15.9,0,0,1,19,18c.31-1.06.47-1.64.5-1.74,0,.11.08.71.19,1.79.19,1.85.27,2.88.26,3.09a10.72,10.72,0,0,0,0,1.55,13.67,13.67,0,0,0,.35,1.76,12.65,12.65,0,0,0,.46,1.37,5.25,5.25,0,0,0,.31.58c.08.09.12.16.11.21s.19-.16.58-.6a6.5,6.5,0,0,0,.88-1.14,11,11,0,0,0,.44-1c.15-.46.35-1.26.59-2.41.13-.63.25-1.24.36-1.82a1,1,0,0,0-.39,0,4.68,4.68,0,0,0-.69.63c-.38.4-.75.81-1.09,1.23.16-.49.35-1,.58-1.56a4.72,4.72,0,0,1,.62-1.09,2.43,2.43,0,0,1,1.18-.55.71.71,0,0,1,0-.14c.1-.76.17-1.28.22-1.56.17-.95.27-1.5.29-1.66s.1-.59.18-1.09.13-.95.19-1.31.16-.91.25-1.55.18-1.12.21-1.28c.12-.74.23-1.42.35-2,.17-.79.26-1.24.28-1.35.12-.53.21-1,.28-1.53a8.57,8.57,0,0,0,.13-.95s0,0,.09,0a1.34,1.34,0,0,1,.12-.46c.12-.29.39-.31.81-.05s.62.47.61.67-.05.48-.09.77c0,0,0,1,.11,2.85a34.85,34.85,0,0,0,.54,5c.41,2.22.76,4,1,5.24l1.67.09a5.4,5.4,0,0,1,1.16.14,3.36,3.36,0,0,1-1.07.47l-.74.23-.75.27C30.54,20.42,30.94,21.85,31.38,23.29Zm-5-8c0,.18-.11.73-.28,1.63,0,.27-.1.66-.17,1.16.72-.08,1.49-.15,2.28-.19-.27-1.22-.6-2.89-1-5-.11-.54-.19-1-.25-1.41q-.12.83-.21,1.35c-.06.34-.12.78-.19,1.32S26.47,15,26.42,15.24Z"/><path class="cls-1" d="M38,5.66l.12.49c0,.15.05.45.09.91,0,.26,0,.56,0,.92V9.86c0,.22,0,.51,0,.86s0,.58,0,.65v.79c0,.52,0,.95,0,1.32-.06.68-.1,1.25-.11,1.72s0,.84,0,1.28v1c0,.49,0,.91,0,1.27a13.85,13.85,0,0,1,.05,1.74q0,.42-.18,2c-.05.58-.09,1-.1,1.34a6.83,6.83,0,0,0,0,.84c-.2-.4-.32-.66-.37-.79-.1-.3-.24-.74-.4-1.32a19.12,19.12,0,0,1-.48-2c-.07-.38-.14-1-.21-1.76q0-.56,0-1.35v-1c0-.44,0-.89,0-1.33s0-1.1.1-1.76a11,11,0,0,0,0-1.23v-.83c0-.08,0-.3,0-.66s0-.63,0-.83V8c0-.33,0-.61,0-.83a6.75,6.75,0,0,1,0-.9c0-.47.07-.79.11-1s.06-.46.12-1,.11-.89.12-1a4.76,4.76,0,0,1,.2-.76,1.84,1.84,0,0,1,.26.74c0,.06.09.36.25.89s.22.85.26,1A2.86,2.86,0,0,0,38,5.66ZM43.7,19.05a5.16,5.16,0,0,1-.56-1.18c-.1-.36-.22-.88-.35-1.56-.19-1-.36-1.82-.53-2.5s-.34-1.37-.58-2.12-.47-1.48-.67-2c0-.13-.1-.33-.19-.58s-.14-.46-.18-.57c-.09-.27-.22-.63-.38-1.09a5.87,5.87,0,0,0-.42-1c-.23-.37-.41-.68-.55-.93a6.82,6.82,0,0,1-.58-1c-.13-.3-.27-.69-.44-1.14-.05-.14-.19-.45-.42-.92a8.53,8.53,0,0,0-.62-1C37.12,1.2,37,1,36.78.8a5.28,5.28,0,0,1,.63.37,9.68,9.68,0,0,1,1,.78,8.52,8.52,0,0,1,.79.77c.39.45.66.76.81.95a8.73,8.73,0,0,1,.67,1c.16.27.36.61.58,1a6.1,6.1,0,0,1,.54,1.19c.18.55.31.93.39,1.13s.1.32.19.58.15.44.18.56c.21.58.44,1.28.69,2.09s.44,1.54.59,2.22.35,1.58.55,2.56c.13.66.23,1.13.32,1.43A10.33,10.33,0,0,1,45,18.56a4.53,4.53,0,0,0,.11.58c.06.27.09.44.1.51s.05.23.09.38.08.34.09.41a7.94,7.94,0,0,0,.49,1.26,4.07,4.07,0,0,1-1-1,7.33,7.33,0,0,0-.46-.7L44,19.58C43.88,19.34,43.77,19.17,43.7,19.05ZM50.15,7.48a11.43,11.43,0,0,1-.49,1.34c-.09.25-.27.65-.54,1.21l-.23.49-.23.48c-.25.54-.4.88-.47,1-.17.42-.36.94-.58,1.56-.1.26-.22.66-.37,1.21,0,.06-.23.61-.62,1.64a4.21,4.21,0,0,0-.26.88,2.57,2.57,0,0,0-.06.63,4.44,4.44,0,0,0,0,.67,4,4,0,0,0,.23.89,4.42,4.42,0,0,1-.56-.79c-.08-.17-.18-.39-.28-.65a3.8,3.8,0,0,1-.21-.72,7.35,7.35,0,0,1-.11-1.14,6.94,6.94,0,0,1,.28-1.86c.15-.55.28-1,.39-1.27.23-.64.44-1.21.63-1.69.07-.18.24-.55.49-1.1l.25-.5c.09-.21.17-.36.23-.47l.51-1.16c.23-.6.38-1,.44-1.2a5,5,0,0,1,.47-1.1c.11-.19.24-.41.41-.67s.26-.41.3-.46.16-.31.42-.81.38-.74.4-.79a3.68,3.68,0,0,1,.46-.82c0,.12,0,.44,0,1,0,.07,0,.36-.1.89s-.1.89-.11,1a8.89,8.89,0,0,1-.37,1.35C50.28,7,50.18,7.38,50.15,7.48Zm2.43,19.71c.07,1,.15,1.9.23,2.6q.18,1.39.3,2a2.14,2.14,0,0,0,.31.84,2.41,2.41,0,0,1-.65-.72c-.31-.52-.66-1.15-1.05-1.86A7.07,7.07,0,0,1,51,27.33c-.07-1-.11-2-.11-3.15,0-.71,0-1.17,0-1.37,0-.37.09-.89.16-1.56,0-.27,0-.56.1-.88s.05-.46.07-.62.08-.66.21-1.42c0-.16.07-.43.13-.79s.09-.63.12-.81.15-.78.31-1.56c.09-.37.19-.95.32-1.76s.22-1.49.26-2c0-.36.1-1.07.18-2.14,0-.59.05-1.29.05-2.11,0-.53,0-1.08-.08-1.65,0,.06-.09-.43-.25-1.46a8.16,8.16,0,0,0-.21-1,2.66,2.66,0,0,0-.39-.88,4.48,4.48,0,0,0-.75-.77,2.27,2.27,0,0,0-.83-.46,2.23,2.23,0,0,1,1,.14,4.59,4.59,0,0,1,1.14.53,3.54,3.54,0,0,1,.9.88A4,4,0,0,1,54,3.63a8,8,0,0,1,.35,1.66,17.18,17.18,0,0,1,.11,1.82c0,.87,0,1.62-.07,2.24-.07,1.08-.13,1.82-.16,2.23s-.15,1.25-.28,2.09-.24,1.43-.34,1.83c-.16.77-.26,1.28-.29,1.51s-.08.43-.13.79-.1.64-.14.81c-.12.73-.18,1.18-.19,1.35s-.05.36-.07.6-.08.59-.11.86c-.06.58-.1,1.07-.14,1.48,0,.14,0,.56,0,1.27C52.47,25.24,52.51,26.25,52.58,27.19Z"/><path class="cls-1" d="M123.77,23.29c.7,2.22,1.18,3.66,1.43,4.32a18.34,18.34,0,0,0,1.65,3.48c.19.33.43.72.72,1.16l.65,1a12.07,12.07,0,0,1-2.29-1.46,8.34,8.34,0,0,1-2.26-3.64c-.27-.71-.76-2.18-1.46-4.41-.46-1.46-.86-2.93-1.22-4.39-.86.1-1.81.17-2.84.21-.12.68-.26,1.4-.43,2.18a23.89,23.89,0,0,1-.66,2.6,8,8,0,0,1-.53,1.25,8.48,8.48,0,0,1-1.16,1.49c-.83.92-1.58,1.23-2.25.95a2.17,2.17,0,0,1-.93-.76,4.09,4.09,0,0,1-.48-.86,13.5,13.5,0,0,1-.52-1.6,11.28,11.28,0,0,1-.41-2,12.28,12.28,0,0,1,0-1.76,15.9,15.9,0,0,1,.68-3.09c.31-1.06.47-1.64.5-1.74,0,.11.08.71.19,1.79.19,1.85.28,2.88.26,3.09a10.72,10.72,0,0,0,0,1.55,13.67,13.67,0,0,0,.35,1.76,12.65,12.65,0,0,0,.46,1.37,5.25,5.25,0,0,0,.31.58c.09.09.12.16.11.21s.19-.16.58-.6a6.5,6.5,0,0,0,.88-1.14,8.83,8.83,0,0,0,.44-1c.15-.46.35-1.26.59-2.41.13-.63.25-1.24.36-1.82a1,1,0,0,0-.39,0,4.68,4.68,0,0,0-.69.63c-.38.4-.75.81-1.09,1.23.16-.49.35-1,.58-1.56a4.72,4.72,0,0,1,.62-1.09,2.43,2.43,0,0,1,1.18-.55.36.36,0,0,1,0-.14q.14-1.14.21-1.56c.17-.95.27-1.5.29-1.66s.1-.59.18-1.09.14-.95.19-1.31.16-.91.25-1.55.18-1.12.21-1.28c.12-.74.24-1.42.35-2,.17-.79.26-1.24.28-1.35.12-.53.21-1,.29-1.53a8.1,8.1,0,0,0,.12-.95s0,0,.09,0a1.34,1.34,0,0,1,.12-.46c.12-.29.39-.31.81-.05s.62.47.61.67,0,.48-.09.77c0,0,0,1,.11,2.85a33.43,33.43,0,0,0,.55,5c.41,2.22.75,4,1,5.24l1.67.09a5.29,5.29,0,0,1,1.16.14,3.36,3.36,0,0,1-1.07.47l-.74.23-.75.27C122.93,20.42,123.33,21.85,123.77,23.29Zm-5-8c0,.18-.11.73-.28,1.63,0,.27-.1.66-.17,1.16.72-.08,1.49-.15,2.28-.19-.27-1.22-.6-2.89-1-5-.11-.54-.19-1-.25-1.41q-.12.83-.21,1.35c-.06.34-.12.78-.19,1.32S118.86,15,118.81,15.24Z"/><path class="cls-1" d="M57.84,27.61c.07.47.11.89.14,1.25s.06.71.12,1.23a2.83,2.83,0,0,0,.11.49l.12.62a2.56,2.56,0,0,1-.83-.88c-.26-.47-.46-.86-.6-1.16-.37-.82-.55-1.21-.52-1.16A7,7,0,0,1,56,26.4c-.06-.4-.13-1.06-.2-2s-.11-1.56-.14-2,0-1,0-1.85V19.31c0-.56,0-1,0-1.4,0-1.05.07-1.64.07-1.8s0-.52,0-.93,0-.73,0-.93c0-.77,0-1.37,0-1.79s.11-1.07.21-1.67a16.14,16.14,0,0,1,.72-2.5c.53-1.38.9-2.29,1.11-2.72,0,.47-.06,1.44,0,2.92a13.59,13.59,0,0,1-.18,2.56,12.09,12.09,0,0,0-.21,1.53c0,.36,0,.93,0,1.71,0,.21,0,.52,0,.93s0,.74,0,1,0,.74-.07,1.79c0,.34,0,.79,0,1.35v1.23c0,.84,0,1.43,0,1.8s0,1.06.12,1.95.14,1.52.19,1.88c0,.2.06.46.11.77S57.82,27.48,57.84,27.61Z"/><path class="cls-1" d="M71.49,18.08a5.8,5.8,0,0,1,.72,2.1A6.7,6.7,0,0,1,72,22.94a7.6,7.6,0,0,1-1.21,2.6,8.72,8.72,0,0,1-2.07,2,12.42,12.42,0,0,1-2.6,1.31,5.91,5.91,0,0,1-2.52.37,5.25,5.25,0,0,1-2.44-.86,5,5,0,0,1-1.62-1.67,4.85,4.85,0,0,1-.75-2.37c.94.89,1.51,1.41,1.7,1.56.48.38,1,.74,1.49,1.08a3.54,3.54,0,0,0,1.78.65,4.71,4.71,0,0,0,1.86-.3,10.22,10.22,0,0,0,2.18-1.13,6.44,6.44,0,0,0,2.64-3.71,5.25,5.25,0,0,0,.18-2.09A5.22,5.22,0,0,0,70.16,19a2.49,2.49,0,0,0-1.57-1,9.78,9.78,0,0,0-5.29,0,30.91,30.91,0,0,0-3.06.95,1.87,1.87,0,0,1-.73.18c-.19-.05-.3-.27-.34-.65a.39.39,0,0,0,0-.16c-.21-.33-.17-.57.13-.72a1.91,1.91,0,0,1,.38-.36c.16-.11.39-.27.71-.47l.65-.42c.43-.31.91-.67,1.42-1.09.25-.21.6-.51,1.07-.88l.67-.56.63-.58.69-.62a9.6,9.6,0,0,0,1.67-1.9A9,9,0,0,0,68,8.77a6.59,6.59,0,0,0,.32-1.5,4.78,4.78,0,0,0-.06-1A1.93,1.93,0,0,0,68,5.6a1.45,1.45,0,0,0-.47-.49,2.07,2.07,0,0,0-.72-.32,1.89,1.89,0,0,0-.65-.07,1.68,1.68,0,0,0-.49.34,4.34,4.34,0,0,0-.6.65c-.49.61-.87,1.09-1.13,1.44a12.75,12.75,0,0,0-.89,1.37c0,.07-.17.33-.41.77s-.49.88-.7,1.27c-.43.83-.72,1.39-.84,1.67A15.21,15.21,0,0,1,60,14c-.89,1.34-1.41,2.16-1.58,2.46,0-.29.24-1.26.58-2.9a11.61,11.61,0,0,1,.6-2c.14-.3.43-.88.88-1.74l.7-1.3c.25-.45.39-.72.44-.79a14.07,14.07,0,0,1,1-1.53l1.18-1.51a6.88,6.88,0,0,1,.78-.82,2.79,2.79,0,0,1,1.24-.69,3.27,3.27,0,0,1,1.41.07,3.78,3.78,0,0,1,1.23.56,3.18,3.18,0,0,1,.9.93,3.7,3.7,0,0,1,.49,1.11A4.55,4.55,0,0,1,70,7.34a7.57,7.57,0,0,1-.38,1.95,10.35,10.35,0,0,1-1,2.25,10.28,10.28,0,0,1-1.88,2.18L65.24,15l-1.46,1.2a11.93,11.93,0,0,1,5.39.28A4,4,0,0,1,71.49,18.08Z"/><path class="cls-1" d="M90,30.83a3.86,3.86,0,0,0,.32.56q.14.21,1.35.09c-.74.82-1.37,1.12-1.88.89a3.73,3.73,0,0,1-1-.65,4.23,4.23,0,0,1-.79-1.19,8.51,8.51,0,0,1-.55-1.35,5.84,5.84,0,0,0-.17-.62l-.18-.63a14.61,14.61,0,0,1-.35-2.2c0-.45-.06-1-.07-1.71a8.3,8.3,0,0,1-1.13,1.9,5.84,5.84,0,0,1-1.84,1.57,7.37,7.37,0,0,1-2.13.74,8.84,8.84,0,0,1-2,.07,5.77,5.77,0,0,1-1.6-.39,5.6,5.6,0,0,1-1.36-.81A6.24,6.24,0,0,1,75.64,26,5.75,5.75,0,0,1,75,24.9a11,11,0,0,1-.59-1.79,10.66,10.66,0,0,1-.3-1.88c0-.4,0-.69,0-.88,0-.75-.07-1.18-.07-1.28,0-.34,0-.66,0-.95s0-.64,0-1V13.9c0-.55,0-.91,0-1.07s0-.17,0-.39,0-.35,0-.49a12.71,12.71,0,0,1,.18-1.28c0-.68.1-1.21.16-1.57,0-.2.14-.65.31-1.35s.35-1.36.41-1.57l.3-1.51c.09.45.18,1,.28,1.53A14.71,14.71,0,0,1,76,9.26q-.06.64-.12,1.56l-.18,1.32s0,.26,0,.74c0,.18,0,.52,0,1v3.22c0,.36,0,.68,0,1s0,.61,0,1c0,.06,0,.48.08,1.25,0,.32,0,.6,0,.84A7.27,7.27,0,0,0,76,22.74a11.35,11.35,0,0,0,.49,1.5,4.37,4.37,0,0,0,.49.79,4.44,4.44,0,0,0,.81.81,4.27,4.27,0,0,0,.88.54,4.68,4.68,0,0,0,1.21.28,5.57,5.57,0,0,0,3.19-.6A4.27,4.27,0,0,0,84.4,24.9a6.41,6.41,0,0,0,1-1.93A12.07,12.07,0,0,0,85.87,21c0-.27.13-1,.25-2.27.07-.68.13-1.51.19-2.48.07-1.18.14-2,.2-2.6s.1-1.24.14-1.81c0-.22,0-.52.07-.88s0-.67,0-.88q.08-1,.18-1.74a13.16,13.16,0,0,1,.56-2.14c.22-.71.34-1.12.37-1.25a3.61,3.61,0,0,1,.17-.65,3.12,3.12,0,0,1,.16.67,9.53,9.53,0,0,1,.12,1.31c.1,1.27.14,2,.14,2.18s0,.89-.07,1.74c0,.21,0,.51-.07.88s0,.67,0,.88c0,.59-.1,1.2-.16,1.83s-.11,1.38-.19,2.57c-.05.83-.09,1.5-.14,2,.13.5.21.85.25,1a10.85,10.85,0,0,1,.31,2c0,.88,0,1.54,0,2,0,1.16.06,1.86.07,2.09a14.18,14.18,0,0,0,.31,2l.16.58c.08.27.14.46.18.56a6.86,6.86,0,0,0,.42,1.11l.32.62Z"/><path class="cls-1" d="M107.2,23.11a6.42,6.42,0,0,1-.48,3.15A6.28,6.28,0,0,1,105,28.7a8.15,8.15,0,0,1-3.61,1.69,8.67,8.67,0,0,1-3.94-.14A10.75,10.75,0,0,1,95,29.32,6.88,6.88,0,0,1,93.27,28a2.18,2.18,0,0,1-.61-1.67,2.42,2.42,0,0,1,1.25-2,35.15,35.15,0,0,1,4.18-1c-2.33,1.59-3.45,2.32-3.36,2.22a2.1,2.1,0,0,0-.56.86c0,.14.07.34.32.6a5.17,5.17,0,0,0,1.24.89,8.09,8.09,0,0,0,2,.78,7.09,7.09,0,0,0,3.24.17,6.32,6.32,0,0,0,3-1.42,4.8,4.8,0,0,0,1.25-1.72,5,5,0,0,0,.37-2.39,6.09,6.09,0,0,0-.64-2.06,6.74,6.74,0,0,0-1.56-1.72,10.23,10.23,0,0,0-3.64-2,13.63,13.63,0,0,1-2.87-1.16,6.51,6.51,0,0,1-1.65-1.51,6.38,6.38,0,0,1-1.12-2,10.57,10.57,0,0,1-.53-2.64c0-.62-.07-1.16-.07-1.61a9,9,0,0,1,.12-1.41,5.85,5.85,0,0,1,.46-1.51,6.5,6.5,0,0,1,.74-1.32,9.38,9.38,0,0,1,1.63-1.81,5.42,5.42,0,0,1,1.23-.77,6.61,6.61,0,0,1,1.08-.37,6.41,6.41,0,0,1,1.65-.28,5.67,5.67,0,0,1,1.28.07c.32.05.68.14,1.09.24a8.27,8.27,0,0,1,1.21.46c.33.14.8.37,1.41.7a11.59,11.59,0,0,1,1.32.88,10.28,10.28,0,0,1,1,.9,6.75,6.75,0,0,1,1,1.4,3.86,3.86,0,0,1,.44,1.37,4.25,4.25,0,0,1-.07,1.27,4.71,4.71,0,0,1-.32,1,3.2,3.2,0,0,1-.58.88,8.87,8.87,0,0,1-.83.76q-.45.35-1.17.81s-.42.23-1.29.73c.42-.49.73-.86.92-1.12.33-.45.58-.81.75-1.09a6.36,6.36,0,0,0,.44-.84,1.48,1.48,0,0,0,.13-.36,1.51,1.51,0,0,1,.14-.37,3.31,3.31,0,0,0,.22-.73,2.28,2.28,0,0,0,.06-.79,2.27,2.27,0,0,0-.28-.78,4.84,4.84,0,0,0-.8-1.05c-.28-.27-.54-.51-.79-.71A9.3,9.3,0,0,0,104.59,4a10.18,10.18,0,0,0-1.26-.63,5.68,5.68,0,0,0-1-.36c-.37-.1-.67-.18-.9-.22a6.44,6.44,0,0,0-.91-.06,6.07,6.07,0,0,0-1.34.23c-.21.06-.49.16-.86.3a3.11,3.11,0,0,0-.84.54,7,7,0,0,0-1.35,1.52,5.94,5.94,0,0,0-.57,1,5.23,5.23,0,0,0-.35,1.22,7.59,7.59,0,0,0-.09,1.14q0,.62.06,1.41a9,9,0,0,0,.44,2.25,5.12,5.12,0,0,0,.86,1.58A5.54,5.54,0,0,0,97.76,15a13.56,13.56,0,0,0,2.58,1,11.72,11.72,0,0,1,4.08,2.27,8.07,8.07,0,0,1,2,2.23A7.13,7.13,0,0,1,107.2,23.11Z"/><path class="cls-2" d="M62.23,30.69a14.3,14.3,0,0,1,2,.82,5.22,5.22,0,0,0,2,.5,9.61,9.61,0,0,1,1.2.12,2.6,2.6,0,0,1-1.13.58,4.58,4.58,0,0,1-2.44.19,4.75,4.75,0,0,1-2.16-1L60.19,30.6,59,29.54C58.89,29.53,60,29.91,62.23,30.69Zm9.11-20c-.24.4-.4.7-.5.9a22.77,22.77,0,0,1-3.07,2.88A15.53,15.53,0,0,1,70,10.89c.22-.2.49-.42.79-.66.09-.09.24-.2.42-.36l.42-.35a2.58,2.58,0,0,0,.6-.63,3.83,3.83,0,0,1-.35.84C71.69,10.05,71.51,10.37,71.34,10.68Zm-.09,3.62A6.25,6.25,0,0,1,70,14a4.46,4.46,0,0,1,1.32,0c.6.17.86.24.79.23S71.65,14.29,71.25,14.3Z"/><path class="cls-2" d="M94.13,23.16a4.88,4.88,0,0,0-1,.86,2.23,2.23,0,0,0-.46,1,2.39,2.39,0,0,1,.09-1.18,5.21,5.21,0,0,1,.73-1.33,2.2,2.2,0,0,1,1.25-.9A12.58,12.58,0,0,1,96,21.3a2.51,2.51,0,0,1,1,0l-.9.4a9.63,9.63,0,0,0-1,.65ZM106,14.34a7.46,7.46,0,0,1,1.61-2A8.71,8.71,0,0,0,109,10.79a8.77,8.77,0,0,1-.83,2A2.69,2.69,0,0,1,106,14.34Zm3.07-.58c-.1.43-.2.8-.28,1.09a3.93,3.93,0,0,1-1,1.88,3.48,3.48,0,0,1,.49-2.07,9.19,9.19,0,0,1,1-1.59C109.23,13.17,109.18,13.4,109.09,13.76Z"/><path class="cls-2" d="M3.64,2.32a4.38,4.38,0,0,1-.05,1.86A14.58,14.58,0,0,1,3.22,5.6q0-.6,0-1.47A4.66,4.66,0,0,1,3.64,2.32Z"/><path class="cls-2" d="M6.82,30.69a13.9,13.9,0,0,1,2,.82,5.12,5.12,0,0,0,2,.5,9.34,9.34,0,0,1,1.2.12,2.54,2.54,0,0,1-1.13.58,4.58,4.58,0,0,1-2.44.19,4.75,4.75,0,0,1-2.16-1L4.79,30.6,3.55,29.54C3.48,29.53,4.57,29.91,6.82,30.69Z"/><path class="cls-2" d="M3.89,8.82a8,8,0,0,1,.88-3.3A6.11,6.11,0,0,1,3.89,8.82Z"/><path class="cls-3" d="M11,23.78C8.88,25.49,7.41,26,6.58,25.43A5.21,5.21,0,0,1,5.24,24a2.79,2.79,0,0,1-.51-1.33,2.41,2.41,0,0,0,.9,1,4.44,4.44,0,0,0,1.39.7A8.05,8.05,0,0,0,11,23.78Z"/><path class="cls-2" d="M5.49,1.68a1.58,1.58,0,0,1,0,1.23L5.12,4.09a4.05,4.05,0,0,1,.07-1.23A4,4,0,0,1,5.49,1.68Z"/><path class="cls-2" d="M8.65.8a5.3,5.3,0,0,1-.21,1,8.54,8.54,0,0,1-1,2.44c-.6.94-1,1.56-1.27,1.87,0-.11.1-.38.23-.83s.26-.91.39-1.33A9.43,9.43,0,0,1,8.05,1.58Z"/><path class="cls-2" d="M9.62,31c.85-.41,1.42-.66,1.7-.76l1.09-.35a5.41,5.41,0,0,0,.76-.3,5.65,5.65,0,0,1-.62.57,3.68,3.68,0,0,1-1.05.52A8.85,8.85,0,0,1,9.62,31Z"/><path class="cls-2" d="M15.93,10.68c-.23.4-.4.7-.49.9a23.25,23.25,0,0,1-3.08,2.88,15.9,15.9,0,0,1,2.23-3.57c.23-.2.49-.42.79-.66l.43-.36.42-.35a3,3,0,0,0,.6-.63,3.87,3.87,0,0,1-.36.84Z"/><path class="cls-2" d="M15.84,14.3A6.08,6.08,0,0,1,14.56,14a4.47,4.47,0,0,1,1.32,0c.59.17.86.24.79.23S16.24,14.29,15.84,14.3Z"/><path class="cls-3" d="M19.78,10.82a10,10,0,0,0-.3,1.66A5,5,0,0,1,19,10.63a2.38,2.38,0,0,1,.51-1.88,1.14,1.14,0,0,1,.81-.37,1.34,1.34,0,0,1,.9.25,4.89,4.89,0,0,1,1.38,2.19A21,21,0,0,1,23.26,16l-2.07-4.53a7.59,7.59,0,0,0-.8-1.51c-.05-.08-.09-.12-.1-.11A2.06,2.06,0,0,0,19.78,10.82Z"/><path class="cls-2" d="M21.87,28.88a4.47,4.47,0,0,1-2.57,2A13.86,13.86,0,0,1,21.87,28.88Z"/><path class="cls-2" d="M21.48,4.55c-.09-.15-.49-.9-1.21-2.25-.06-.12-.23-.4-.51-.85S19.43.89,19.39.8a3.35,3.35,0,0,1,.64.41l.79.63a6.1,6.1,0,0,1,1.53,2.22,12.44,12.44,0,0,1,1,3.74Z"/><path class="cls-2" d="M21.61,8.54A9.65,9.65,0,0,1,20.54,6c.39.06,1,.78,1.77,2.18a9.54,9.54,0,0,1,1.25,4c-.08-.16-.34-.63-.76-1.4S21.91,9.14,21.61,8.54Z"/><path class="cls-2" d="M23.58,33.62a26.3,26.3,0,0,1-.3-2.72,5.2,5.2,0,0,1,.82-2.3,10.48,10.48,0,0,1,1.39-2A10.66,10.66,0,0,0,25,28.88a19,19,0,0,1-.35,2.21c-.15.48-.38,1.33-.68,2.55-.07.28-.14.59-.2.93A9.26,9.26,0,0,1,23.58,33.62Z"/><path class="cls-3" d="M25.12,6.9c-.22,2-.33,3.06-.33,3.19a15,15,0,0,1-.6-3.2,8.77,8.77,0,0,1,.35-3.71A7.47,7.47,0,0,1,25.09,2s0,.48.05,1.3A23.59,23.59,0,0,1,25.12,6.9Z"/><path class="cls-3" d="M27.78,22.06A53.06,53.06,0,0,1,29,28.84,12.46,12.46,0,0,1,27.78,22.06Z"/><path class="cls-3" d="M29.46,26a35,35,0,0,1,1.78,6.66A12,12,0,0,1,29.46,26Z"/><path class="cls-2" d="M29.85,3.3a8.82,8.82,0,0,1,.67,2.14,17.73,17.73,0,0,1,0,4.86,16.79,16.79,0,0,1-.9-4.77A10.58,10.58,0,0,1,29.85,3.3Z"/><path class="cls-3" d="M33,5.57c-.1.53-.16.92-.18,1.18q-.24,2.82-2.76,7.8a40.3,40.3,0,0,1,1.95-8,11.05,11.05,0,0,1,1.09-1.81A8.29,8.29,0,0,1,33,5.57Z"/><path class="cls-2" d="M34.47,9.61A16.06,16.06,0,0,0,34,11.33a14.31,14.31,0,0,1-2.44,4.73,17.63,17.63,0,0,1,1.83-5C33.57,10.72,34,10.24,34.47,9.61Z"/><path class="cls-2" d="M34.39,25c-1-.75-1.74-2.31-2.31-4.68A12.24,12.24,0,0,1,34.39,25Z"/><path class="cls-2" d="M37,29.21a7.31,7.31,0,0,1-2.78-1.79,11.06,11.06,0,0,1-1.65-2.5l1,.85c.53.45.92.82,1.19,1.08s.68.71,1.3,1.38S37,29.16,37,29.21Z"/><path class="cls-2" d="M36.94,22.94l.31,1.17a5.79,5.79,0,0,1,.35,1.06,4.92,4.92,0,0,0,.07.54,3.15,3.15,0,0,1,.07.6,2.64,2.64,0,0,1-1-2.11S36.84,23.76,36.94,22.94Z"/><path class="cls-3" d="M40,28a7.87,7.87,0,0,0,.11,1.21A12.21,12.21,0,0,0,40.56,31c0,.1.09.38.17.82-.23-.38-.38-.62-.44-.7-.56-.75-.92-1.27-1.09-1.56a9.65,9.65,0,0,1-.61-1.27,5.1,5.1,0,0,1-.25-1.39,8.5,8.5,0,0,1,.21-1.76c.16-.77.26-1.26.32-1.47a7,7,0,0,1,.25-.79,4.85,4.85,0,0,1,.35-.72,3.55,3.55,0,0,0-.07.77c0,.3,0,.56.05.77s.11.67.26,1.44S40,26.47,40,26.8C40,27.35,40,27.75,40,28Z"/><path class="cls-2" d="M39.06,9.1c.07-.33.12-.57.14-.74a5,5,0,0,1,.35-.93,5.21,5.21,0,0,0,0,1c0,.15.08.39.14.72,0,.08,0,.21.07.39s.07.3.09.4a2.41,2.41,0,0,1,.05.85,3.8,3.8,0,0,1-.07.4c0,.21-.07.37-.08.47-.07.34-.13.62-.16.83s-.13.68-.18,1.09c-.1-.41-.19-.77-.26-1.09,0-.09,0-.22-.07-.37L39,11.61c0-.28-.1-.57-.16-.87a2.68,2.68,0,0,1,0-.85C39,9.62,39,9.36,39.06,9.1Z"/><path class="cls-2" d="M44.53,21.34c.08.17.16.32.23.45s.28.55.6,1.2a11.06,11.06,0,0,0,.52,1c-.34-.29-.62-.55-.86-.77-.51-.5-.84-.79-1-.9a4.13,4.13,0,0,1-.72-.74,5.69,5.69,0,0,1-.56-1.39,4.34,4.34,0,0,1-.17-1.07c0-.27-.05-.63-.09-1.07.2.4.36.72.47,1a4.27,4.27,0,0,0,.48.83A10.65,10.65,0,0,0,44.34,21Z"/><path class="cls-3" d="M48.12,1.93a9.84,9.84,0,0,1-.85.56,4.53,4.53,0,0,0-.86.53c-.6.46-.9.68-.91.68l.26-.42.35-.56a5.32,5.32,0,0,1,.69-.91,2.19,2.19,0,0,1,1-.48,3.23,3.23,0,0,1,1.07-.14c.19,0,.43.07.74.12-.31.06-.54.12-.69.16A2.47,2.47,0,0,0,48.12,1.93Z"/><path class="cls-2" d="M47.24,4.46a6,6,0,0,1,.89-1c.32-.28.6-.51.85-.7a2.69,2.69,0,0,1,.82-.49,3.1,3.1,0,0,0-.58.7c-.17.29-.35.6-.52.93A6.19,6.19,0,0,0,48.24,5a3.5,3.5,0,0,1-.41.93c-.25.36-.48.69-.66,1q-.08.11-.3.51l-.32.48a6.52,6.52,0,0,0-.54,1,5.45,5.45,0,0,1,.15-1.14c0-.13.08-.31.13-.55s.1-.5.12-.58c.07-.36.17-.77.3-1.21A2.79,2.79,0,0,1,47.24,4.46Z"/><path class="cls-2" d="M50.82,29q.07.32.21.93c0,.09.06.25.11.5s.09.34.12.47q.16.72.39,1.41a4.17,4.17,0,0,1-1.11-1.11c-.17-.27-.36-.54-.54-.81s-.42-.66-.55-.84a2.59,2.59,0,0,1-.39-1,4.12,4.12,0,0,1,0-1.07q0-.57,0-.87a6.94,6.94,0,0,1,0-.73,9.11,9.11,0,0,1,.09-.95c0-.2.07-.51.14-.94a6.88,6.88,0,0,0,.21.9c0-.13.05.17.25.9a5.2,5.2,0,0,0,.24.65c.08.21.18.49.28.84,0,.11.1.27.2.49a2.75,2.75,0,0,1,.12.37C50.77,28.75,50.83,29,50.82,29Z"/><path class="cls-2" d="M53.92,24.46a4.88,4.88,0,0,1,.68-.84,1.58,1.58,0,0,1,.76-.47,1.51,1.51,0,0,0-.49.66,3.68,3.68,0,0,0-.3.92c0,.19-.07.52-.11,1,0,.21,0,.52,0,.91,0,.2,0,.54,0,1,0,.1-.06.38-.16.82,0,.17-.09.42-.16.78-.1.52-.16.83-.17.91-.06.33-.11.6-.16.83-.12.56-.18.85-.19.87a4.39,4.39,0,0,1-.27-.87c0-.24-.1-.51-.16-.83,0-.08-.08-.39-.17-.91-.07-.36-.12-.64-.16-.85a3.5,3.5,0,0,1,0-.93A3.85,3.85,0,0,1,53,26.38a9.16,9.16,0,0,1,.41-.93A8.35,8.35,0,0,1,53.92,24.46Z"/><path class="cls-3" d="M112.17,10.82a10,10,0,0,0-.3,1.66,5,5,0,0,1-.44-1.85,2.38,2.38,0,0,1,.51-1.88,1.14,1.14,0,0,1,.81-.37,1.34,1.34,0,0,1,.9.25A4.9,4.9,0,0,1,115,10.82a21.68,21.68,0,0,1,.61,5.15c-1.46-3.22-2.16-4.73-2.07-4.53a8.2,8.2,0,0,0-.79-1.51c-.06-.08-.1-.12-.11-.11A2.06,2.06,0,0,0,112.17,10.82Z"/><path class="cls-2" d="M114.26,28.88a4.49,4.49,0,0,1-2.56,2A13.42,13.42,0,0,1,114.26,28.88Z"/><path class="cls-2" d="M113.88,4.55c-.1-.15-.5-.9-1.22-2.25-.06-.12-.23-.4-.51-.85s-.33-.56-.37-.65a3.35,3.35,0,0,1,.64.41l.79.63a6.1,6.1,0,0,1,1.53,2.22,12.44,12.44,0,0,1,1,3.74Z"/><path class="cls-2" d="M114,8.54A9.65,9.65,0,0,1,112.93,6c.39.06,1,.78,1.77,2.18a9.54,9.54,0,0,1,1.25,4c-.08-.16-.33-.63-.76-1.4S114.3,9.14,114,8.54Z"/><path class="cls-2" d="M116,33.62a26.3,26.3,0,0,1-.3-2.72,5.2,5.2,0,0,1,.82-2.3,10.48,10.48,0,0,1,1.39-2,10.15,10.15,0,0,0-.52,2.32,20.59,20.59,0,0,1-.36,2.21c-.15.48-.38,1.33-.68,2.55-.07.28-.14.59-.2.93A9.26,9.26,0,0,1,116,33.62Z"/><path class="cls-2" d="M117.51,6.9c-.22,2-.33,3.06-.33,3.19a15.69,15.69,0,0,1-.6-3.2,8.77,8.77,0,0,1,.35-3.71A7.47,7.47,0,0,1,117.48,2s0,.48,0,1.3A23.59,23.59,0,0,1,117.51,6.9Z"/><path class="cls-2" d="M120.17,22.06a53.06,53.06,0,0,1,1.26,6.78A12.55,12.55,0,0,1,120.17,22.06Z"/><path class="cls-3" d="M121.86,26a35.6,35.6,0,0,1,1.77,6.66A11.93,11.93,0,0,1,121.86,26Z"/><path class="cls-2" d="M122.24,3.3a8.82,8.82,0,0,1,.67,2.14,17.73,17.73,0,0,1,0,4.86,16.79,16.79,0,0,1-.9-4.77A10.58,10.58,0,0,1,122.24,3.3Z"/><path class="cls-3" d="M125.34,5.57c-.1.53-.16.92-.18,1.18q-.24,2.82-2.76,7.8a40.3,40.3,0,0,1,1.95-8,11.05,11.05,0,0,1,1.09-1.81A8.29,8.29,0,0,1,125.34,5.57Z"/><path class="cls-2" d="M126.87,9.61a12.45,12.45,0,0,0-.51,1.72,14.58,14.58,0,0,1-2.45,4.73,17.63,17.63,0,0,1,1.83-5C126,10.72,126.34,10.24,126.87,9.61Z"/><path class="cls-3" d="M126.78,25c-1-.75-1.74-2.31-2.31-4.68A12.24,12.24,0,0,1,126.78,25Z"/><path class="cls-2" d="M129.4,29.21a7.31,7.31,0,0,1-2.78-1.79,11.06,11.06,0,0,1-1.65-2.5l1,.85c.53.45.92.82,1.19,1.08s.68.71,1.3,1.38S129.34,29.16,129.4,29.21Z"/><path class="cls-2" d="M77,15a9,9,0,0,1,0-1.3,19.71,19.71,0,0,1,.32-2.94c.12-.47.32-1.07.59-1.81.11-.29.27-.82.48-1.58.08.8.13,1.36.14,1.69A13.57,13.57,0,0,1,78.51,11a11.54,11.54,0,0,1-1,2.79C77.26,14.35,77.1,14.75,77,15Zm13.93.61a3.59,3.59,0,0,1-.76,1.48,10.16,10.16,0,0,0-1,1.56,7.16,7.16,0,0,1,.44-1.88,8.54,8.54,0,0,1,.65-1.44A12.9,12.9,0,0,1,91,14.11,6.26,6.26,0,0,1,90.94,15.62Z"/><path class="cls-3" d="M83.87,11.81A8.1,8.1,0,0,1,83,9.35c-.09-.78-.15-1.47-.17-2.08,0-.41,0-.93,0-1.58a9,9,0,0,1,.07-1.21A5.08,5.08,0,0,1,83.29,3a12.16,12.16,0,0,1,.63-1.14A5.73,5.73,0,0,1,85.52.45a11.66,11.66,0,0,0-.72,1.81,7.37,7.37,0,0,0-.14,1.09,11,11,0,0,1-.12,1.3,7.89,7.89,0,0,0-.06,1c0,.65,0,1.16,0,1.53,0,.56.08,1.21.16,1.93,0-.05.06.74.19,2.38a20.75,20.75,0,0,0,.43,2.7A20.49,20.49,0,0,1,83.87,11.81Z"/><path class="cls-2" d="M82.52,15.62c-.22-.7-.37-1.24-.48-1.61a13.53,13.53,0,0,1-.53-2.76,11,11,0,0,1,0-1.73,14.72,14.72,0,0,0,.63,1.55c0,.08.2.4.49.95l.76,1.49a19.18,19.18,0,0,1,1.16,3.13,7.12,7.12,0,0,1,.28,2.52,6.23,6.23,0,0,1-.33,1.6,7.65,7.65,0,0,1-.37.84c-.15.26-.35.57-.6.95.11-.49.18-.85.21-1.07a8.44,8.44,0,0,0,0-.85,5.28,5.28,0,0,0-.25-1.35c-.07-.26-.16-.62-.26-1.07s-.21-.86-.3-1.18Z"/><path class="cls-2" d="M76.63,3.6A2.17,2.17,0,0,1,76.47,3a5.11,5.11,0,0,0-.25-1A6.22,6.22,0,0,1,76,1a3.49,3.49,0,0,1,.74.67,5.45,5.45,0,0,1,.67,1,2.59,2.59,0,0,1,.19,1.47q-.07.48-.18,1c-.06.34-.11.63-.16.88,0-.25-.11-.54-.17-.88s-.14-.68-.21-1C76.81,4.13,76.74,3.93,76.63,3.6Z"/><path class="cls-3" d="M79.07,16.48a10.7,10.7,0,0,1-.88,3.71,8.34,8.34,0,0,0-.61,2.15,4.19,4.19,0,0,0,.1,1.05,4.25,4.25,0,0,1-.49-1A6.89,6.89,0,0,1,77,19.84a4.25,4.25,0,0,1,.76-2A3.85,3.85,0,0,1,79.07,16.48Z"/><path class="cls-3" d="M91,8c0,.32.07.54.08.65a3,3,0,0,1-.1,1.53,6.87,6.87,0,0,1-.69,1.45,7.46,7.46,0,0,1-.88,1.36c0,.08-.2.26-.43.53a3.78,3.78,0,0,0-.39.47,4.45,4.45,0,0,1,.21-.6,5,5,0,0,0,.21-.61,9.48,9.48,0,0,0,.32-1.46c0-.21.06-.49.1-.83l.09-.67a5.18,5.18,0,0,1,.19-.7l.18-.58s.1-.46.33-1.41a4.5,4.5,0,0,0,.13-.61,6.45,6.45,0,0,1,.14-.67,5.27,5.27,0,0,1,.38,1.28C90.93,7.24,91,7.52,91,8Z"/><path class="cls-2" d="M108.67,24.38a9.25,9.25,0,0,0,.25-1c.06.28.11.64.16,1.07A6.47,6.47,0,0,1,109,26.5a7.17,7.17,0,0,1-.35,1.41,2.56,2.56,0,0,1-.58.86,9.76,9.76,0,0,1-1.14.9,5.59,5.59,0,0,1-2.61,1,5.06,5.06,0,0,0,.94-.64,4.53,4.53,0,0,0,1-1.09,9,9,0,0,0,.67-1.07,5.71,5.71,0,0,1,.35-.7,3.13,3.13,0,0,1,.25-.39l.44-.7A6,6,0,0,0,108.67,24.38Z"/><path class="cls-2" d="M94.15,2.47a14.58,14.58,0,0,0-.52,1.78c0,.06-.2.7-.57,1.93-.11.41-.33,1.34-.65,2.78a8,8,0,0,1-.7-3,4.9,4.9,0,0,1,.58-2.27A6.94,6.94,0,0,1,93.43,2,12,12,0,0,1,95.19.49,11.08,11.08,0,0,0,94.15,2.47Z"/><path class="cls-2" d="M66.38,23.78c-2.1,1.71-3.56,2.26-4.4,1.65A5.17,5.17,0,0,1,60.65,24a2.79,2.79,0,0,1-.51-1.33,2.41,2.41,0,0,0,.9,1,4.5,4.5,0,0,0,1.38.7A8.09,8.09,0,0,0,66.38,23.78Z"/><path class="cls-3" d="M59.05,2.32a4.38,4.38,0,0,1,0,1.86,14.58,14.58,0,0,1-.37,1.42,11.92,11.92,0,0,1,0-1.47A4.66,4.66,0,0,1,59.05,2.32Z"/><path class="cls-3" d="M59.29,8.82a8.15,8.15,0,0,1,.88-3.3A5.94,5.94,0,0,1,59.29,8.82Z"/><path class="cls-3" d="M60.89,1.68a1.52,1.52,0,0,1,0,1.23l-.33,1.18a3.74,3.74,0,0,1,.07-1.23A4.44,4.44,0,0,1,60.89,1.68Z"/><path class="cls-3" d="M64.06.8a5.3,5.3,0,0,1-.21,1,8.54,8.54,0,0,1-1,2.44c-.6.94-1,1.56-1.27,1.87,0-.11.1-.38.23-.83s.26-.91.39-1.33a9.43,9.43,0,0,1,1.26-2.34Z"/><path class="cls-3" d="M65,31c.85-.41,1.42-.66,1.7-.76l1.09-.35a5.41,5.41,0,0,0,.76-.3,6.79,6.79,0,0,1-.62.57,4,4,0,0,1-1,.52A9,9,0,0,1,65,31Z"/></g></g></svg>